<svg width="66" height="81" viewBox="0 0 66 81" fill="none" xmlns="http://www.w3.org/2000/svg">
<g clip-path="url(#clip0_18_235)">
<path d="M32.4849 -0.117563C32.7006 -0.117761 32.9163 -0.11796 33.1385 -0.118164C38.3724 -0.105518 42.8297 0.905592 47.5205 3.24056C47.9225 3.43634 47.9225 3.43634 48.3326 3.63607C55.8106 7.48155 61.4104 14.463 63.9972 22.4044C64.0563 22.5902 64.1153 22.776 64.1762 22.9674C64.2309 23.1393 64.2856 23.3112 64.3419 23.4883C64.5061 24.0266 64.6563 24.5666 64.8005 25.1106C64.8516 25.2989 64.9026 25.4872 64.9552 25.6812C65.4847 27.9195 65.4596 30.1981 65.4587 32.4849C65.459 32.8085 65.459 32.8085 65.4593 33.1385C65.4405 40.9077 62.9209 48.0868 57.7805 54.0006C57.595 54.2219 57.4095 54.4433 57.2184 54.6713C51.9535 60.7805 43.9461 64.9398 35.8768 65.5768C25.692 66.0196 17.3803 63.0714 9.65621 56.4527C5.44202 52.5003 2.22306 46.8939 0.810544 41.3106C0.706848 40.9168 0.706848 40.9168 0.601057 40.515C-0.0250924 37.9205 -0.150368 35.447 -0.134455 32.7887C-0.13398 32.5757 -0.133504 32.3627 -0.133013 32.1432C-0.107146 26.9383 0.919014 22.4844 3.24054 17.8206C3.37106 17.5526 3.50158 17.2846 3.63605 17.0085C7.48153 9.53054 14.463 3.93072 22.4043 1.3439C22.5902 1.28485 22.776 1.22579 22.9674 1.16494C23.1393 1.11023 23.3112 1.05552 23.4883 0.999154C24.0266 0.834964 24.5666 0.684768 25.1105 0.540562C25.2989 0.489508 25.4872 0.438454 25.6812 0.385853C27.9195 -0.143611 30.1981 -0.118475 32.4849 -0.117563Z" fill="#FAFBFC"/>
<path d="M0.80957 40.23C3.1754 40.1924 5.54112 40.1636 7.90718 40.146C9.00593 40.1376 10.1045 40.1261 11.2031 40.1078C12.264 40.0901 13.3248 40.0805 14.3858 40.0763C14.7899 40.0733 15.194 40.0675 15.5981 40.0587C16.1657 40.0469 16.7325 40.0453 17.3003 40.0461C17.7841 40.0407 17.7841 40.0407 18.2777 40.0352C19.1696 40.23 19.1696 40.23 19.8371 41.0384C20.6753 41.9602 21.4039 41.9917 22.6244 42.055C23.3963 42.0703 24.1672 42.0653 24.9391 42.0587C25.365 42.0609 25.7908 42.0638 26.2167 42.0674C27.3702 42.075 28.5236 42.0728 29.6772 42.0687C30.8836 42.0662 32.09 42.0728 33.2965 42.0784C35.5799 42.0877 37.8633 42.0888 40.1468 42.0869C42.7469 42.0851 45.3469 42.0925 47.947 42.1007C53.2945 42.1173 58.642 42.1224 63.9896 42.12C63.3033 46.5067 60.695 50.7339 57.7796 54C57.4924 54.3404 57.4924 54.3404 57.1995 54.6876C51.9481 60.7922 43.9295 64.9404 35.8758 65.5762C25.6911 66.019 17.3793 63.0708 9.65523 56.4521C5.45519 52.5129 2.18875 46.892 0.80957 41.31C0.80957 40.9536 0.80957 40.5972 0.80957 40.23Z" fill="#0C9B0B"/>
<path d="M-0.000301144 33.4795C21.5619 33.4795 43.1241 33.4795 65.3397 33.4795C65.3397 38.1384 65.3397 38.1384 64.7997 40.2126C64.7482 40.4261 64.6967 40.6397 64.6436 40.8597C64.5197 41.3706 64.3904 41.8802 64.2597 42.3895C58.6199 42.3921 52.9801 42.3854 47.3403 42.3678C44.7216 42.3599 42.103 42.3549 39.4843 42.3571C37.2018 42.3589 34.9194 42.3551 32.637 42.3446C31.4284 42.3391 30.22 42.3366 29.0114 42.3408C27.8736 42.3446 26.736 42.3409 25.5982 42.3315C25.1809 42.3293 24.7636 42.3299 24.3463 42.3335C21.1478 42.3587 21.1478 42.3587 20.2398 41.7523C19.8703 41.346 19.519 40.9233 19.1697 40.4995C18.2606 40.2583 18.2606 40.2583 17.2756 40.2908C17.0937 40.2879 16.9117 40.2851 16.7243 40.2821C16.128 40.2746 15.5324 40.2783 14.9362 40.2822C14.5208 40.2792 14.1054 40.2754 13.6901 40.271C12.6008 40.2613 11.5116 40.2612 10.4223 40.2631C9.30916 40.2633 8.19609 40.2545 7.08298 40.2464C4.90186 40.2318 2.72087 40.2275 0.539699 40.2295C-0.0724858 37.9065 -0.000301144 35.9783 -0.000301144 33.4795Z" fill="#FCFDFC"/>
<path d="M32.4838 -0.117563C32.6995 -0.117761 32.9152 -0.11796 33.1374 -0.118164C38.3713 -0.105518 42.8286 0.905592 47.5195 3.24056C47.9214 3.43634 47.9214 3.43634 48.3316 3.63607C52.9001 5.98544 56.7629 9.56507 59.6695 13.7706C59.6695 13.8597 59.6695 13.9488 59.6695 14.0406C56.306 14.0719 52.9426 14.0959 49.5791 14.1105C48.017 14.1175 46.4551 14.1271 44.8931 14.1424C43.384 14.1571 41.875 14.1652 40.3659 14.1686C39.7918 14.1711 39.2178 14.176 38.6438 14.1833C33.1478 14.2506 33.1478 14.2506 30.5095 12.6906C27.2606 11.5549 23.6501 11.9268 20.5195 13.2306C20.3435 13.3691 20.1675 13.5076 19.9862 13.6503C18.7303 14.2504 17.5172 14.14 16.1436 14.1197C15.8518 14.1185 15.5601 14.1174 15.2595 14.1162C14.3296 14.1117 13.3999 14.1015 12.4701 14.0912C11.8389 14.0871 11.2076 14.0834 10.5764 14.0801C9.03069 14.0712 7.48508 14.0576 5.93945 14.0406C6.17209 12.8891 6.77141 12.1781 7.5257 11.3068C7.65927 11.1518 7.79283 10.9968 7.93044 10.8371C12.4868 5.64006 18.4334 2.23403 25.1095 0.540562C25.2954 0.490683 25.4814 0.440804 25.673 0.389413C27.9146 -0.141592 30.1935 -0.118476 32.4838 -0.117563Z" fill="#F6F8FB"/>
<path d="M34.5601 55.8896C41.5099 55.8896 48.4597 55.8896 55.6201 55.8896C55.1587 56.8125 55.0092 57.1092 54.2743 57.7079C54.113 57.8396 53.9516 57.9712 53.7854 58.1069C49.0837 61.8067 43.7651 64.4304 37.8001 65.3396C37.5826 65.3745 37.3651 65.4093 37.1409 65.4451C29.949 66.37 21.5058 65.0468 15.4903 60.7939C15.3071 60.6384 15.3071 60.6384 15.1201 60.4796C15.1201 60.3905 15.1201 60.3014 15.1201 60.2096C22.7827 60.1205 30.4453 60.0314 38.3401 59.9396C37.0927 58.6922 35.8453 57.4448 34.5601 56.1596C34.5601 56.0705 34.5601 55.9814 34.5601 55.8896Z" fill="#079907"/>
<path d="M0.80957 40.23C3.1754 40.1924 5.54112 40.1636 7.90718 40.146C9.00593 40.1376 10.1045 40.1261 11.2031 40.1078C12.264 40.0901 13.3248 40.0805 14.3858 40.0763C14.7899 40.0733 15.194 40.0675 15.5981 40.0587C16.1657 40.0469 16.7325 40.0453 17.3003 40.0461C17.7841 40.0407 17.7841 40.0407 18.2777 40.0352C19.1696 40.23 19.1696 40.23 19.8371 41.0384C20.6753 41.9602 21.4039 41.9917 22.6244 42.055C23.3963 42.0703 24.1672 42.0653 24.9391 42.0587C25.365 42.0609 25.7908 42.0638 26.2167 42.0674C27.3702 42.075 28.5236 42.0728 29.6772 42.0687C30.8836 42.0662 32.09 42.0728 33.2965 42.0784C35.5799 42.0877 37.8633 42.0888 40.1468 42.0869C42.7469 42.0851 45.3469 42.0925 47.947 42.1007C53.2945 42.1173 58.642 42.1224 63.9896 42.12C63.8137 43.251 63.565 44.2807 63.1796 45.36C63.0905 45.1818 63.0014 45.0036 62.9096 44.82C42.8621 44.82 22.8146 44.82 2.15957 44.82C0.94457 42.0862 0.94457 42.0862 0.80957 40.23Z" fill="#089807"/>
<path d="M11.4078 9.53414C11.6945 9.5287 11.6945 9.5287 11.987 9.52314C12.6244 9.51274 13.2614 9.51191 13.8989 9.51115C14.3571 9.50578 14.8154 9.49987 15.2737 9.49346C16.5166 9.47809 17.7595 9.47158 19.0025 9.46764C19.78 9.46487 20.5575 9.46039 21.335 9.45535C24.0502 9.43801 26.7653 9.42854 29.4805 9.42545C32.0071 9.42235 34.533 9.401 37.0594 9.37133C39.2319 9.34671 41.4041 9.33569 43.5767 9.33495C44.8729 9.33424 46.1684 9.32799 47.4644 9.30773C48.6848 9.28907 49.904 9.2874 51.1244 9.2984C51.5703 9.29959 52.0163 9.29485 52.4621 9.28353C55.9849 9.1995 55.9849 9.1995 57.3653 10.5012C58.337 11.5619 59.2106 12.6635 59.6695 14.0401C56.306 14.0715 52.9426 14.0954 49.5791 14.1101C48.017 14.1171 46.4551 14.1266 44.8931 14.142C43.384 14.1567 41.875 14.1647 40.3659 14.1682C39.7918 14.1707 39.2178 14.1755 38.6438 14.1828C33.1478 14.2501 33.1478 14.2501 30.5095 12.6901C27.2606 11.5544 23.6501 11.9264 20.5195 13.2301C20.3435 13.3686 20.1675 13.5072 19.9862 13.6499C18.7303 14.2499 17.5172 14.1395 16.1436 14.1192C15.8518 14.1181 15.5601 14.1169 15.2595 14.1157C14.3296 14.1112 13.3999 14.101 12.4701 14.0907C11.8389 14.0867 11.2076 14.083 10.5764 14.0797C9.03069 14.0707 7.48508 14.0572 5.93945 14.0401C6.13237 13.1819 6.35029 12.6966 6.93508 12.032C7.0642 11.882 7.19333 11.732 7.32637 11.5774C8.70365 10.1886 9.38749 9.55378 11.4078 9.53414Z" fill="#0133CA"/>
<path d="M31.5902 52.6494C40.5002 52.6494 49.4102 52.6494 58.5902 52.6494C57.8695 54.0908 57.2434 55.2339 55.8902 56.1594C54.2813 56.4992 52.7092 56.4433 51.0724 56.3967C50.6033 56.3922 50.1342 56.3887 49.6651 56.3863C48.4362 56.3771 47.2079 56.3532 45.9793 56.3263C44.7232 56.3013 43.4671 56.2903 42.2109 56.2781C39.7504 56.2521 37.2903 56.2107 34.8302 56.1594C35.002 56.3291 35.002 56.3291 35.1772 56.5021C35.6922 57.0116 36.2062 57.522 36.7202 58.0325C36.9005 58.2106 37.0808 58.3886 37.2665 58.572C37.4371 58.7417 37.6076 58.9114 37.7833 59.0862C37.9417 59.2431 38.1 59.4001 38.2632 59.5618C38.6102 59.9394 38.6102 59.9394 38.6102 60.2094C35.5685 60.3013 32.5268 60.3796 29.4843 60.4409C28.0713 60.4698 26.6586 60.5032 25.246 60.5474C23.8806 60.5899 22.5153 60.62 21.1494 60.6419C20.6305 60.6523 20.1117 60.667 19.593 60.6863C16.5758 60.7954 14.5848 60.7705 12.2503 58.6802C12.0391 58.472 11.8278 58.2639 11.6102 58.0494C11.1848 57.6869 10.7577 57.3264 10.3277 56.9694C10.0286 56.7068 9.73333 56.4392 9.4502 56.1594C9.4502 56.0703 9.4502 55.9812 9.4502 55.8894C21.6123 55.7558 21.6123 55.7558 34.0202 55.6194C32.8173 54.4166 32.8173 54.4166 31.5902 53.1894C31.5902 53.0112 31.5902 52.833 31.5902 52.6494Z" fill="#F9FCF9"/>
<path d="M2.16016 44.8203C22.2077 44.8203 42.2552 44.8203 62.9102 44.8203C62.6402 46.4403 62.6402 46.4403 62.3702 46.9803C44.4611 47.114 44.4611 47.114 26.1902 47.2503C26.4575 47.6513 26.4575 47.6513 26.7302 48.0603C19.0676 48.0603 11.405 48.0603 3.51016 48.0603C2.16016 45.3603 2.16016 45.3603 2.16016 44.8203Z" fill="#059705"/>
<path d="M25.9203 46.9795C37.8597 46.9795 49.7991 46.9795 62.1003 46.9795C61.5603 48.5995 61.5603 48.5995 61.2903 49.1395C50.331 49.1395 39.3717 49.1395 28.0803 49.1395C28.6149 49.8523 29.1495 50.5651 29.7003 51.2995C26.5954 51.3911 23.4905 51.4695 20.3848 51.531C18.9427 51.56 17.501 51.5935 16.0592 51.6375C14.6675 51.6797 13.2761 51.71 11.8839 51.732C11.3531 51.7424 10.8224 51.7572 10.2918 51.7764C6.13895 51.9224 6.13895 51.9224 4.98567 51.0539C4.31013 50.0819 4.06677 49.2055 3.78027 48.0595C15.0069 47.9258 15.0069 47.9258 26.4603 47.7895C26.193 47.3885 26.193 47.3885 25.9203 46.9795Z" fill="#F7FCF7"/>
<path d="M32.4845 -0.117563C32.7002 -0.117761 32.9159 -0.11796 33.1381 -0.118164C39.6197 -0.102503 44.8925 1.62294 50.4901 4.86056C50.4901 5.03876 50.4901 5.21696 50.4901 5.40056C38.818 5.40056 27.1459 5.40056 15.1201 5.40056C15.7285 4.1838 15.7285 4.1838 16.6832 3.73099C16.8908 3.63165 17.0984 3.5323 17.3124 3.42994C17.5356 3.32847 17.7589 3.22699 17.9889 3.12244C18.2182 3.01626 18.4475 2.91009 18.6838 2.80069C20.7745 1.85552 22.8862 1.10853 25.1101 0.540562C25.2953 0.491075 25.4805 0.441587 25.6713 0.390599C27.914 -0.140919 30.193 -0.118477 32.4845 -0.117563Z" fill="#0636CA"/>
<path d="M19.9795 68.5801C21.316 68.5801 22.6525 68.5801 24.0295 68.5801C24.1402 68.9769 24.2509 69.3736 24.3649 69.7824C24.5118 70.3042 24.6587 70.8259 24.8057 71.3476C24.8785 71.609 24.9512 71.8703 25.0262 72.1396C25.0975 72.392 25.1689 72.6443 25.2424 72.9043C25.3399 73.2521 25.3399 73.2521 25.4395 73.607C25.6396 74.2197 25.8853 74.763 26.1895 75.3301C26.2372 75.1448 26.2848 74.9595 26.3339 74.7686C26.5495 73.9318 26.7661 73.0953 26.9826 72.2588C27.0576 71.9672 27.1326 71.6755 27.2099 71.375C27.2821 71.0966 27.3543 70.8181 27.4288 70.5313C27.4952 70.2739 27.5617 70.0166 27.6301 69.7514C27.8095 69.1201 27.8095 69.1201 28.0795 68.5801C29.3269 68.5801 30.5743 68.5801 31.8595 68.5801C31.8595 72.6787 31.8595 76.7773 31.8595 81.0001C31.0576 81.0001 30.2557 81.0001 29.4295 81.0001C29.2958 77.6588 29.2958 77.6588 29.1595 74.2501C28.6375 76.3702 28.6375 76.3702 28.1175 78.4909C28.0524 78.7534 27.9873 79.0158 27.9202 79.2862C27.8538 79.5563 27.7873 79.8263 27.7189 80.1046C27.5395 80.7301 27.5395 80.7301 27.2695 81.0001C26.8593 81.0195 26.4482 81.0227 26.0376 81.017C25.8145 81.0145 25.5914 81.0121 25.3616 81.0096C25.1893 81.0064 25.017 81.0033 24.8395 81.0001C24.048 78.7838 23.5064 76.5353 22.9495 74.2501C22.8604 76.4776 22.7713 78.7051 22.6795 81.0001C21.7885 81.0001 20.8975 81.0001 19.9795 81.0001C19.9795 76.9015 19.9795 72.8029 19.9795 68.5801Z" fill="white"/>
<path d="M1.34961 42.66C3.98055 42.6475 6.61148 42.6379 9.24245 42.632C10.464 42.6292 11.6856 42.6253 12.9071 42.6192C14.0853 42.6134 15.2635 42.6101 16.4417 42.6087C16.8919 42.6077 17.3421 42.6058 17.7923 42.6029C18.4214 42.599 19.0503 42.5984 19.6794 42.5987C19.8668 42.5967 20.0542 42.5948 20.2473 42.5928C21.538 42.5984 21.538 42.5984 22.1396 43.2C22.8894 43.2852 22.8894 43.2852 23.7831 43.2751C24.1337 43.2782 24.4843 43.2812 24.8455 43.2843C25.2363 43.2849 25.6271 43.2855 26.0178 43.286C26.4276 43.2886 26.8373 43.2913 27.247 43.2943C28.3615 43.3017 29.476 43.3057 30.5906 43.3092C31.7545 43.3134 32.9184 43.3207 34.0824 43.3276C36.2874 43.3403 38.4924 43.3502 40.6975 43.3591C43.2075 43.3694 45.7174 43.3828 48.2274 43.3964C53.3914 43.4243 58.5555 43.4484 63.7196 43.47C63.5414 44.0937 63.3632 44.7174 63.1796 45.36C63.0905 45.1818 63.0014 45.0036 62.9096 44.82C42.8621 44.82 22.8146 44.82 2.15961 44.82C1.34961 43.2 1.34961 43.2 1.34961 42.66Z" fill="#FAFDF9"/>
<path d="M8.10059 68.5799C9.78792 68.5549 9.78792 68.5549 11.5093 68.5293C11.8611 68.5219 12.2128 68.5146 12.5752 68.507C14.4592 68.4934 15.7079 68.5877 17.2321 69.7717C17.8519 70.605 17.8579 71.6191 17.8206 72.6299C17.4325 73.4231 17.4325 73.4231 17.0106 73.9799C16.9485 74.6179 16.9485 74.6179 17.6856 75.2287C18.3689 76.0288 18.5519 76.6748 18.4713 77.7536C18.2726 78.7341 17.9445 79.4404 17.2806 80.1899C15.375 81.1607 13.579 81.0953 11.4756 81.0506C10.3618 81.0339 9.24809 81.0171 8.10059 80.9999C8.10059 76.9013 8.10059 72.8027 8.10059 68.5799ZM10.8006 71.0099C10.8006 71.8118 10.8006 72.6137 10.8006 73.4399C11.3179 73.4619 11.8355 73.4776 12.3531 73.4906C12.6413 73.5 12.9295 73.5094 13.2264 73.519C14.1217 73.4321 14.4699 73.2316 15.1206 72.6299C15.0182 71.7414 15.0182 71.7414 14.5806 71.0099C13.9452 70.9903 13.3093 70.9873 12.6737 70.9931C12.3253 70.9955 11.9769 70.9979 11.618 71.0004C11.3482 71.0036 11.0785 71.0067 10.8006 71.0099ZM10.8006 75.5999C10.8006 76.58 10.8006 77.5601 10.8006 78.5699C11.459 78.5991 12.1162 78.6205 12.775 78.6374C13.0545 78.651 13.0545 78.651 13.3397 78.6649C14.478 78.6874 14.478 78.6874 15.3937 78.07C15.7308 77.4852 15.7308 77.4852 15.5256 76.7812C15.0144 75.9719 14.6749 75.8805 13.7706 75.5999C12.9885 75.5352 12.9885 75.5352 12.2012 75.5662C11.5079 75.5829 11.5079 75.5829 10.8006 75.5999Z" fill="white"/>
<path d="M55.3498 69.1202C56.2055 69.8303 56.8538 70.4975 57.2398 71.5502C57.2398 71.8175 57.2398 72.0848 57.2398 72.3602C56.3331 72.5381 55.4651 72.6685 54.5398 72.6302C53.7298 71.989 53.7298 71.989 53.1898 71.2802C52.2448 70.8078 51.2183 71.0173 50.2198 71.2802C49.3754 72.0824 48.9334 72.8088 48.8149 73.9845C48.784 75.4577 48.8947 76.4939 49.6798 77.7602C50.7784 78.4853 51.5925 78.6495 52.8692 78.4521C53.4857 78.31 53.4857 78.31 53.9998 78.0302C54.4565 77.2249 54.4565 77.2249 54.5398 76.4102C53.6488 76.4102 52.7578 76.4102 51.8398 76.4102C51.8398 75.6974 51.8398 74.9846 51.8398 74.2502C53.6218 74.2502 55.4038 74.2502 57.2398 74.2502C57.3066 75.4781 57.3066 75.4781 57.3748 76.7309C57.3945 76.9864 57.4141 77.2419 57.4344 77.5052C57.4523 78.1842 57.4332 78.727 57.2398 79.3802C55.6584 80.9458 53.7153 81.0816 51.6043 81.0858C49.8247 81.0532 48.6832 80.7421 47.3816 79.5448C45.7875 77.8091 45.7792 75.853 45.8165 73.6122C45.9682 71.8242 46.5855 70.7751 47.8742 69.559C50.088 67.8256 52.9087 67.9463 55.3498 69.1202Z" fill="white"/>
<path d="M34.0195 68.5807C34.9996 68.5807 35.9797 68.5807 36.9895 68.5807C37.0786 70.0954 37.1677 71.6101 37.2595 73.1707C37.5268 72.8644 37.7941 72.5581 38.0695 72.2425C38.3321 71.9507 38.3321 71.9507 38.6 71.653C39.1596 71.0211 39.1596 71.0211 39.6231 70.3262C40.4311 69.225 40.8974 68.6451 42.2872 68.4277C43.2334 68.4287 44.1498 68.4738 45.0895 68.5807C44.878 68.8972 44.6637 69.2118 44.4483 69.5257C44.3292 69.7011 44.2102 69.8765 44.0876 70.0572C43.9727 70.1937 43.8579 70.3301 43.7395 70.4707C43.5613 70.4707 43.3831 70.4707 43.1995 70.4707C43.1438 70.6155 43.0882 70.7602 43.0308 70.9094C42.5836 71.6818 42.0206 72.1696 41.3486 72.7488C41.2466 72.888 41.1446 73.0272 41.0395 73.1707C41.1661 73.9684 41.4509 74.5566 41.8791 75.2347C41.9939 75.4176 42.1088 75.6005 42.2271 75.7889C42.3475 75.9774 42.468 76.1659 42.592 76.36C42.7083 76.5454 42.8245 76.7307 42.9443 76.9217C43.5269 77.8436 44.1275 78.7411 44.7731 79.6201C45.3595 80.4607 45.3595 80.4607 45.3595 81.0007C44.1289 81.2201 43.0703 81.3024 41.8495 81.0007C40.8627 79.944 40.3111 78.7967 39.6895 77.4907C39.5371 77.2411 39.3846 76.9916 39.2276 76.7345C38.8795 76.1407 38.8795 76.1407 38.8795 75.6007C38.1114 76.0256 37.7475 76.2392 37.2595 76.9507C37.0879 77.9509 37.0401 78.9108 37.018 79.9249C36.9895 80.7307 36.9895 80.7307 36.7195 81.0007C35.8285 81.0007 34.9375 81.0007 34.0195 81.0007C34.0195 76.9021 34.0195 72.8035 34.0195 68.5807Z" fill="white"/>
<path d="M34.5596 55.8896C41.5094 55.8896 48.4592 55.8896 55.6196 55.8896C54.6588 57.8112 52.9616 59.2754 51.0296 60.2096C49.2682 60.6752 47.4596 60.6223 45.6517 60.5579C44.8303 60.5301 44.0123 60.5302 43.1906 60.534C42.6624 60.527 42.1341 60.5184 41.6059 60.5081C41.2431 60.5075 41.2431 60.5075 40.8729 60.5069C38.9574 60.421 38.0169 59.6836 36.7196 58.3196C36.494 58.1059 36.2685 57.8922 36.0361 57.6721C35.773 57.4079 35.773 57.4079 35.5046 57.1384C35.3236 56.9581 35.1426 56.7778 34.9561 56.5921C34.5596 56.1596 34.5596 56.1596 34.5596 55.8896Z" fill="#049804"/>
<path d="M0 32.4004C21.5622 32.4004 43.1244 32.4004 65.34 32.4004C65.34 32.7568 65.34 33.1132 65.34 33.4804C43.7778 33.4804 22.2156 33.4804 0 33.4804C0 33.124 0 32.7676 0 32.4004Z" fill="#676767"/>
<path d="M37.2598 17.5498C45.3679 17.5498 53.476 17.5498 61.8298 17.5498C63.1798 19.9798 63.1798 19.9798 63.1798 20.7898C61.143 20.8241 59.1062 20.8477 57.0692 20.864C56.3767 20.8707 55.6843 20.8799 54.992 20.8916C53.9946 20.9081 52.9975 20.9157 52.0001 20.9216C51.5384 20.9321 51.5384 20.9321 51.0674 20.9428C49.3657 20.9433 48.2484 20.7951 46.8718 19.7568C45.4498 18.7134 43.2549 19.009 41.5798 19.1698C40.836 19.4546 40.2462 19.7757 39.5917 20.2245C39.1498 20.5198 39.1498 20.5198 38.6098 20.5198C38.3834 20.1269 38.1587 19.7329 37.9348 19.3386C37.8095 19.1193 37.6842 18.9 37.5551 18.6741C37.2598 18.0898 37.2598 18.0898 37.2598 17.5498Z" fill="#0434C9"/>
<path d="M22.1406 42.3896C35.862 42.3896 49.5834 42.3896 63.7206 42.3896C63.6315 42.6569 63.5424 42.9242 63.4506 43.1996C62.5703 43.4931 61.9322 43.5029 61.0057 43.5021C60.6638 43.5025 60.3219 43.5029 59.9697 43.5032C59.5901 43.5023 59.2105 43.5013 58.8309 43.5003C58.4318 43.5002 58.0326 43.5003 57.6335 43.5004C56.5491 43.5005 55.4648 43.4989 54.3804 43.497C53.2474 43.4953 52.1145 43.4952 50.9816 43.4949C48.8358 43.494 46.6901 43.4918 44.5443 43.4891C42.1016 43.4861 39.6589 43.4846 37.2162 43.4832C32.191 43.4804 27.1658 43.4757 22.1406 43.4696C22.1406 43.1132 22.1406 42.7568 22.1406 42.3896Z" fill="#029701"/>
<path d="M22.1407 43.4697C35.8621 43.4697 49.5835 43.4697 63.7207 43.4697C63.5425 44.0934 63.3643 44.7171 63.1807 45.3597C63.0916 45.1815 63.0025 45.0033 62.9107 44.8197C42.9523 44.8197 22.9939 44.8197 2.43066 44.8197C2.43066 44.7306 2.43066 44.6415 2.43066 44.5497C5.09119 44.4982 7.75182 44.4546 10.4125 44.4147C10.6264 44.4115 10.8403 44.4083 11.0607 44.405C21.9816 44.244 32.9032 44.257 43.825 44.2629C44.0469 44.263 44.2687 44.2631 44.4972 44.2632C50.2751 44.2662 56.0529 44.2717 61.8307 44.2797C61.8307 44.1015 61.8307 43.9233 61.8307 43.7397C48.733 43.7397 35.6353 43.7397 22.1407 43.7397C22.1407 43.6506 22.1407 43.5615 22.1407 43.4697Z" fill="#B0DAB0"/>
<path d="M0.27016 37.5303C2.39889 37.4927 4.52749 37.464 6.65647 37.4464C7.64508 37.4379 8.63346 37.4264 9.62194 37.4081C10.5761 37.3905 11.53 37.3808 12.4843 37.3766C13.0251 37.3721 13.5659 37.3595 14.1067 37.3467C16.5074 37.3459 16.5074 37.3459 17.2089 37.9017C17.5119 38.3502 17.5119 38.3502 17.8202 39.1503C15.5718 39.1565 13.3234 39.1613 11.0751 39.1643C10.0311 39.1657 8.98724 39.1676 7.94334 39.1707C6.93672 39.1736 5.93011 39.1752 4.92348 39.1759C4.53862 39.1764 4.15375 39.1774 3.76889 39.1788C3.23162 39.1808 2.69434 39.1809 2.15706 39.1809C1.85068 39.1815 1.54431 39.1821 1.22864 39.1828C0.54016 39.1503 0.54016 39.1503 0.27016 38.8803C0.259188 38.4304 0.258626 37.9801 0.27016 37.5303Z" fill="#21A121"/>
<path d="M50.4902 22.9502C55.0343 22.9502 59.5784 22.9502 64.2602 22.9502C64.3939 24.153 64.3939 24.153 64.5302 25.3802C63.5684 25.4117 62.6068 25.4308 61.6446 25.4477C61.3726 25.4567 61.1006 25.4658 60.8204 25.4751C58.7809 25.502 58.7809 25.502 57.7718 24.8571C57.5964 24.6733 57.421 24.4895 57.2402 24.3002C55.7649 23.6445 54.3081 23.4569 52.7821 24.0028C52.1881 24.2657 51.6068 24.5412 51.0302 24.8402C50.852 24.2165 50.6738 23.5928 50.4902 22.9502Z" fill="#1541CA"/>
<path d="M46.9801 3.50977C48.4061 3.64888 49.2946 4.11855 50.4901 4.85977C50.4901 5.03797 50.4901 5.21617 50.4901 5.39977C38.818 5.39977 27.1459 5.39977 15.1201 5.39977C15.1201 5.22157 15.1201 5.04337 15.1201 4.85977C16.0336 4.6543 16.8756 4.55627 17.8112 4.5573C18.0744 4.55693 18.3375 4.55655 18.6086 4.55617C18.894 4.55714 19.1795 4.55811 19.4737 4.55911C19.7767 4.55907 20.0798 4.55903 20.392 4.55899C21.3927 4.55918 22.3934 4.56128 23.3941 4.5634C24.0884 4.5639 24.7826 4.56429 25.4768 4.56456C27.1167 4.56548 28.7566 4.56761 30.3965 4.57032C32.2639 4.57334 34.1314 4.57482 35.9989 4.57618C39.8393 4.579 43.6797 4.58375 47.5201 4.58977C47.5201 4.41157 47.5201 4.23337 47.5201 4.04977C47.3419 4.04977 47.1637 4.04977 46.9801 4.04977C46.9801 3.87157 46.9801 3.69337 46.9801 3.50977Z" fill="#0635BF"/>
<path d="M39.1494 60.4805C42.7134 60.4805 46.2774 60.4805 49.9494 60.4805C49.1335 61.2964 48.3526 61.741 47.3338 62.2355C47.1647 62.3183 46.9956 62.4011 46.8213 62.4865C43.6673 64.0142 43.6673 64.0142 42.6995 63.9652C41.8121 63.5908 41.2227 62.9188 40.5669 62.2355C40.4301 62.0973 40.2933 61.9591 40.1524 61.8168C39.1494 60.7921 39.1494 60.7921 39.1494 60.4805Z" fill="#FBFDFB"/>
<path d="M3.5102 17.5499C4.02614 17.4525 4.02614 17.4525 4.66205 17.4579C4.89985 17.458 5.13766 17.4581 5.38267 17.4581C5.63974 17.4623 5.89682 17.4665 6.16168 17.4708C6.4246 17.4719 6.68753 17.4731 6.95842 17.4743C7.80034 17.4788 8.64208 17.489 9.48395 17.4993C10.0538 17.5033 10.6237 17.507 11.1936 17.5103C12.5925 17.5193 13.9913 17.5333 15.3902 17.5499C14.8556 18.6191 14.321 19.6883 13.7702 20.7899C12.9616 20.3768 12.153 19.9637 11.3444 19.5506C9.49967 18.688 7.38874 18.5509 5.42656 19.1319C4.77659 19.3954 4.14412 19.6804 3.5102 19.9799C3.2429 20.069 2.9756 20.1581 2.7002 20.2499C2.9027 18.4611 2.9027 18.4611 3.5102 17.5499Z" fill="#0C38C5"/>
<path d="M37.2598 17.5498C45.3679 17.5498 53.476 17.5498 61.8298 17.5498C62.0971 18.2181 62.0971 18.2181 62.3698 18.8998C62.1916 18.8998 62.0134 18.8998 61.8298 18.8998C61.6961 18.4989 61.6961 18.4989 61.5598 18.0898C53.6744 17.9562 53.6744 17.9562 45.6298 17.8198C45.7189 18.1762 45.808 18.5326 45.8998 18.8998C46.2562 18.9889 46.6126 19.078 46.9798 19.1698C46.8016 19.2589 46.6234 19.348 46.4398 19.4398C46.1725 19.3507 45.9052 19.2616 45.6298 19.1698C43.3872 18.9816 41.5073 18.9109 39.5917 20.2245C39.1498 20.5198 39.1498 20.5198 38.6098 20.5198C38.3834 20.1269 38.1587 19.7329 37.9348 19.3386C37.8095 19.1193 37.6842 18.9 37.5551 18.6741C37.2598 18.0898 37.2598 18.0898 37.2598 17.5498Z" fill="#0936C7"/>
<path d="M20.2496 41.5801C20.5169 41.7137 20.5169 41.7137 20.7896 41.8501C21.3574 41.8788 21.9261 41.8897 22.4946 41.8928C22.6715 41.8941 22.8483 41.8955 23.0306 41.8968C23.6259 41.901 24.2212 41.9032 24.8165 41.9055C25.2422 41.9081 25.6679 41.9108 26.0936 41.9136C27.2516 41.9209 28.4097 41.9266 29.5677 41.932C30.777 41.9379 31.9864 41.9453 33.1957 41.9525C35.4868 41.966 37.7779 41.9781 40.069 41.9898C42.6769 42.0031 45.2848 42.0179 47.8927 42.0329C53.2583 42.0636 58.624 42.0925 63.9896 42.1201C63.9005 42.5656 63.8114 43.0111 63.7196 43.4701C63.185 43.3364 63.185 43.3364 62.6396 43.2001C62.9069 43.2001 63.1742 43.2001 63.4496 43.2001C63.4496 43.0219 63.4496 42.8437 63.4496 42.6601C58.0728 42.6538 52.696 42.649 47.3191 42.6461C44.8227 42.6447 42.3263 42.6428 39.8299 42.6397C37.6546 42.637 35.4794 42.6353 33.3042 42.6347C32.1518 42.6343 30.9995 42.6335 29.8471 42.6315C28.7635 42.6297 27.6798 42.6291 26.5961 42.6295C26.1975 42.6295 25.799 42.6289 25.4004 42.6279C24.8579 42.6266 24.3153 42.627 23.7728 42.6276C23.4687 42.6274 23.1646 42.6271 22.8512 42.6269C22.1453 42.6117 22.1453 42.6117 21.5996 42.9301C20.9565 42.9472 20.3221 42.9479 19.6794 42.9359C19.4818 42.9334 19.2842 42.9308 19.0807 42.9281C18.4261 42.9192 17.7717 42.9083 17.1172 42.8974C16.664 42.8908 16.2107 42.8844 15.7575 42.8781C14.5634 42.8611 13.3694 42.8424 12.1754 42.8235C10.9574 42.8044 9.73946 42.7869 8.52148 42.7692C6.13084 42.7344 3.74022 42.6978 1.34961 42.6601C1.34961 42.571 1.34961 42.4819 1.34961 42.3901C7.49751 42.3901 13.6454 42.3901 19.9796 42.3901C20.0687 42.1228 20.1578 41.8555 20.2496 41.5801Z" fill="#2F9E32"/>
<path d="M50.4901 60.21C50.4901 60.2991 50.4901 60.3882 50.4901 60.48C42.6411 60.8013 34.802 60.7372 26.9495 60.6319C26.6915 60.6284 26.4334 60.6249 26.1676 60.6214C22.935 60.5777 19.7026 60.5305 16.4701 60.48C16.5592 60.7473 16.6483 61.0146 16.7401 61.29C15.4239 60.8175 15.4239 60.8175 15.1201 60.21C18.7876 60.1555 22.4551 60.105 26.1226 60.0581C26.3914 60.0547 26.6603 60.0512 26.9372 60.0477C34.7939 59.9484 42.6371 59.8919 50.4901 60.21Z" fill="#44AD46"/>
<path d="M48.8701 4.0498C49.4047 4.3171 49.9393 4.5844 50.4901 4.8598C50.4901 5.038 50.4901 5.2162 50.4901 5.3998C38.818 5.3998 27.1459 5.3998 15.1201 5.3998C15.2092 5.2216 15.2983 5.0434 15.3901 4.8598C32.23 4.99345 32.23 4.99345 49.4101 5.1298C49.4101 4.9516 49.4101 4.7734 49.4101 4.5898C49.2319 4.5898 49.0537 4.5898 48.8701 4.5898C48.8701 4.4116 48.8701 4.2334 48.8701 4.0498Z" fill="#7890C7"/>
<path d="M50.4902 22.9502C55.0343 22.9502 59.5784 22.9502 64.2602 22.9502C64.2602 23.663 64.2602 24.3758 64.2602 25.1102C62.9237 25.1102 61.5872 25.1102 60.2102 25.1102C60.2993 24.932 60.3884 24.7538 60.4802 24.5702C61.4603 24.5702 62.4404 24.5702 63.4502 24.5702C63.5393 24.1247 63.6284 23.6792 63.7202 23.2202C62.5726 23.2457 61.4251 23.2744 60.2777 23.3059C59.8883 23.3161 59.499 23.3256 59.1096 23.3341C56.2322 23.3979 53.6765 23.6015 51.0302 24.8402C50.852 24.2165 50.6738 23.5928 50.4902 22.9502Z" fill="#1039BA"/>
<path d="M28.0801 49.1406C38.9503 49.1406 49.8205 49.1406 61.0201 49.1406C60.931 49.4079 60.8419 49.6752 60.7501 49.9506C60.6164 49.6833 60.6164 49.6833 60.4801 49.4106C60.318 49.412 60.156 49.4134 59.989 49.4148C56.0478 49.4487 52.1067 49.4825 48.1656 49.5162C46.2597 49.5326 44.3538 49.5489 42.4479 49.5653C40.6097 49.5811 38.7715 49.5968 36.9334 49.6125C36.2309 49.6186 35.5285 49.6246 34.8261 49.6306C33.8447 49.6391 32.8633 49.6475 31.8819 49.6558C31.5894 49.6584 31.2969 49.6609 30.9956 49.6635C30.7287 49.6658 30.4618 49.668 30.1868 49.6704C29.9546 49.6724 29.7223 49.6744 29.4831 49.6764C29.0154 49.6797 28.5478 49.6806 28.0801 49.6806C28.0801 49.5024 28.0801 49.3242 28.0801 49.1406Z" fill="#2D9B30"/>
<path d="M56.7004 10.2598C57.8336 11.3263 58.7946 12.4816 59.6704 13.7698C59.6704 13.8589 59.6704 13.948 59.6704 14.0398C56.265 14.0523 52.8596 14.0619 49.4542 14.0677C47.873 14.0706 46.2919 14.0744 44.7107 14.0805C43.1859 14.0864 41.6611 14.0896 40.1363 14.091C39.5535 14.092 38.9706 14.094 38.3878 14.0969C37.5738 14.1008 36.7599 14.1013 35.9459 14.1011C35.7029 14.103 35.46 14.105 35.2097 14.107C33.542 14.1014 33.542 14.1014 32.9404 13.4998C41.494 13.5889 50.0476 13.678 58.8604 13.7698C58.5931 13.1015 58.5931 13.1015 58.3204 12.4198C57.7693 12.1803 57.7693 12.1803 57.2404 12.1498C56.9731 11.2142 56.9731 11.2142 56.7004 10.2598Z" fill="#0B36BB"/>
<path d="M37.2598 17.5498C45.3679 17.5498 53.476 17.5498 61.8298 17.5498C62.0971 18.2181 62.0971 18.2181 62.3698 18.8998C62.1916 18.8998 62.0134 18.8998 61.8298 18.8998C61.6961 18.4989 61.6961 18.4989 61.5598 18.0898C53.8081 18.0007 46.0564 17.9116 38.0698 17.8198C37.9807 18.1762 37.8916 18.5326 37.7998 18.8998C37.6216 18.4543 37.4434 18.0088 37.2598 17.5498Z" fill="#0B35BC"/>
<path d="M28.0795 49.6807C28.625 50.1239 29.165 50.5741 29.6995 51.0307C29.6995 51.1198 29.6995 51.2089 29.6995 51.3007C22.0369 51.3007 14.3743 51.3007 6.47949 51.3007C6.47949 51.2116 6.47949 51.1225 6.47949 51.0307C13.6075 51.0307 20.7355 51.0307 28.0795 51.0307C27.9458 50.4961 27.9458 50.4961 27.8095 49.9507C27.8986 49.8616 27.9877 49.7725 28.0795 49.6807Z" fill="#F2FDF5"/>
<path d="M59.6699 26.46C61.4519 26.46 63.2339 26.46 65.0699 26.46C65.0699 26.9055 65.0699 27.351 65.0699 27.81C63.377 27.81 61.6841 27.81 59.9399 27.81C59.8508 27.3645 59.7617 26.919 59.6699 26.46Z" fill="#0E38C1"/>
<path d="M34.5596 55.8896C41.5094 55.8896 48.4592 55.8896 55.6196 55.8896C55.4414 56.246 55.2632 56.6024 55.0796 56.9696C54.9459 56.5687 54.9459 56.5687 54.8096 56.1596C48.5726 56.1596 42.3356 56.1596 35.9096 56.1596C35.8205 56.516 35.7314 56.8724 35.6396 57.2396C35.2832 56.7941 34.9268 56.3486 34.5596 55.8896Z" fill="#1E951B"/>
<path d="M3.5102 17.5499C4.02614 17.4525 4.02614 17.4525 4.66205 17.4579C4.89985 17.458 5.13766 17.4581 5.38267 17.4581C5.63974 17.4623 5.89682 17.4665 6.16168 17.4708C6.4246 17.4719 6.68753 17.4731 6.95842 17.4743C7.80034 17.4788 8.64208 17.489 9.48395 17.4993C10.0538 17.5033 10.6237 17.507 11.1936 17.5103C12.5925 17.5193 13.9913 17.5329 15.3902 17.5499C14.8502 18.0899 14.8502 18.0899 13.7975 18.1512C13.3433 18.1511 12.8891 18.1481 12.435 18.1426C12.196 18.1419 11.9571 18.1411 11.7109 18.1403C10.946 18.1373 10.1813 18.1305 9.41645 18.1236C8.8986 18.1209 8.38074 18.1185 7.86289 18.1163C6.59196 18.1103 5.32109 18.101 4.0502 18.0899C3.872 18.4463 3.6938 18.8027 3.5102 19.1699C3.65498 19.0307 3.79977 18.8915 3.94895 18.748C4.5902 18.3599 4.5902 18.3599 5.4677 18.4443C5.71272 18.5055 5.95775 18.5668 6.2102 18.6299C5.43254 19.0259 4.64606 19.3914 3.8477 19.7436C3.63191 19.839 3.41612 19.9344 3.19379 20.0326C3.0309 20.1043 2.86802 20.176 2.7002 20.2499C2.9027 18.4611 2.9027 18.4611 3.5102 17.5499Z" fill="#0A34BB"/>
<path d="M22.1406 63.7207C24.5163 63.9763 26.8743 64.2694 29.2281 64.6826C31.1851 65.0251 33.1145 65.2389 35.1006 65.3407C35.1006 65.4298 35.1006 65.5189 35.1006 65.6107C30.5899 65.7028 26.4952 65.1557 22.1406 63.9907C22.1406 63.9016 22.1406 63.8125 22.1406 63.7207Z" fill="#53B054"/>
<path d="M4.7744 17.7891C5.08971 17.7905 5.40502 17.7919 5.72988 17.7933C6.0701 17.7942 6.41031 17.7951 6.76084 17.796C7.12277 17.7982 7.48471 17.8005 7.84664 17.8028C8.20963 17.8042 8.57262 17.8054 8.93561 17.8065C9.827 17.8097 10.7184 17.8142 11.6098 17.8197C9.92434 18.6624 9.92434 18.6624 8.79375 18.6371C8.55673 18.6338 8.31971 18.6305 8.07551 18.6271C7.57627 18.6176 7.07705 18.6071 6.57785 18.5954C6.34014 18.5925 6.10242 18.5895 5.8575 18.5865C5.64036 18.5819 5.42322 18.5774 5.19951 18.5727C4.52463 18.6358 4.09208 18.8319 3.50977 19.1697C3.81234 17.8298 3.81234 17.8298 4.7744 17.7891Z" fill="#0231CB"/>
<path d="M6.47945 12.6904C6.56855 13.0468 6.65765 13.4032 6.74945 13.7704C10.8481 13.7704 14.9467 13.7704 19.1695 13.7704C19.1695 13.8595 19.1695 13.9486 19.1695 14.0404C14.8036 14.0404 10.4377 14.0404 5.93945 14.0404C6.20945 12.9604 6.20945 12.9604 6.47945 12.6904Z" fill="#163FBD"/>
<path d="M41.8496 17.8203C43.097 17.8203 44.3444 17.8203 45.6296 17.8203C45.7187 18.1767 45.8078 18.5331 45.8996 18.9003C46.256 18.9894 46.6124 19.0785 46.9796 19.1703C46.1674 19.5764 45.5352 19.3346 44.6509 19.1872C44.33 19.1346 44.0091 19.0821 43.6784 19.0279C43.4313 18.9858 43.1842 18.9437 42.9296 18.9003C43.0187 18.7221 43.1078 18.5439 43.1996 18.3603C42.7541 18.2712 42.3086 18.1821 41.8496 18.0903C41.8496 18.0012 41.8496 17.9121 41.8496 17.8203Z" fill="#1F47CB"/>
<path d="M24.0303 1.35026C23.9412 1.52846 23.8521 1.70666 23.7603 1.89026C22.9047 2.16999 22.0661 2.39684 21.1784 2.54839C20.4677 2.68258 20.4677 2.68258 19.6934 3.13901C18.8293 3.5435 18.6778 3.51686 17.8203 3.24026C22.7604 0.942767 22.7604 0.942767 24.0303 1.35026Z" fill="#5470CB"/>
<path d="M3.2402 17.8203C3.3293 17.8203 3.4184 17.8203 3.5102 17.8203C3.5102 18.2658 3.5102 18.7113 3.5102 19.1703C3.65498 19.0311 3.79977 18.8919 3.94895 18.7484C4.5902 18.3603 4.5902 18.3603 5.4677 18.4447C5.71272 18.5059 5.95775 18.5672 6.2102 18.6303C5.43254 19.0263 4.64606 19.3918 3.8477 19.7441C3.63191 19.8394 3.41612 19.9348 3.19379 20.033C3.0309 20.1047 2.86802 20.1764 2.7002 20.2503C2.93645 18.4278 2.93645 18.4278 3.2402 17.8203Z" fill="#264BC3"/>
<path d="M51.2998 23.2197C52.0739 23.3746 52.3424 23.4523 52.9198 24.0297C51.9842 24.4307 51.9842 24.4307 51.0298 24.8397C50.9407 24.5724 50.8516 24.3051 50.7598 24.0297C50.938 23.7624 51.1162 23.4951 51.2998 23.2197Z" fill="#1A42C4"/>
<path d="M56.7002 10.2598C57.6712 11.203 58.5455 12.1797 59.4002 13.2298C59.3111 13.408 59.222 13.5862 59.1302 13.7698C58.7252 13.3985 58.7252 13.3985 58.3202 12.9598C58.3202 12.7816 58.3202 12.6034 58.3202 12.4198C57.9638 12.3307 57.6074 12.2416 57.2402 12.1498C57.062 11.5261 56.8838 10.9024 56.7002 10.2598Z" fill="#3F66C5"/>
<path d="M44.0098 1.88965C46.6003 2.67013 46.6003 2.67013 47.5198 3.50965C47.2525 3.59875 46.9852 3.68785 46.7098 3.77965C46.7098 3.60145 46.7098 3.42325 46.7098 3.23965C46.2643 3.23965 45.8188 3.23965 45.3598 3.23965C45.3598 3.06145 45.3598 2.88325 45.3598 2.69965C44.9143 2.69965 44.4688 2.69965 44.0098 2.69965C44.0098 2.43235 44.0098 2.16505 44.0098 1.88965Z" fill="#3C5DC7"/>
<path d="M37.2598 17.5498C38.5072 17.5498 39.7546 17.5498 41.0398 17.5498C41.0398 17.6389 41.0398 17.728 41.0398 17.8198C40.0597 17.8198 39.0796 17.8198 38.0698 17.8198C37.9807 18.1762 37.8916 18.5326 37.7998 18.8998C37.6216 18.4543 37.4434 18.0088 37.2598 17.5498Z" fill="#133ABC"/>
<path d="M15.1201 60.21C16.1002 60.21 17.0803 60.21 18.0901 60.21C18.0901 60.2991 18.0901 60.3882 18.0901 60.48C17.5555 60.48 17.0209 60.48 16.4701 60.48C16.5592 60.7473 16.6483 61.0146 16.7401 61.29C15.4239 60.8175 15.4239 60.8175 15.1201 60.21Z" fill="#44A943"/>
<path d="M20.2495 41.5801C21.1405 41.7583 22.0315 41.9365 22.9495 42.1201C22.5931 42.3874 22.2367 42.6547 21.8695 42.9301C20.857 42.7107 20.857 42.7107 19.9795 42.3901C20.0686 42.1228 20.1577 41.8555 20.2495 41.5801Z" fill="#169616"/>
<path d="M24.0301 1.35089C23.941 1.52909 23.8519 1.70729 23.7601 1.89089C23.1353 2.0882 22.5051 2.26927 21.8701 2.43089C21.9545 1.90777 21.9545 1.90777 22.1401 1.35089C22.9862 1.06888 23.2173 1.09865 24.0301 1.35089Z" fill="#4263CB"/>
</g>
<defs>
<clipPath id="clip0_18_235">
<rect width="65.34" height="81" fill="white"/>
</clipPath>
</defs>
</svg>
