<svg width="76" height="68" viewBox="0 0 76 68" fill="none" xmlns="http://www.w3.org/2000/svg">
<path d="M19.625 15.75H20.028L20.1136 15.3562C21.9408 6.95088 29.2455 0.75 38 0.75C46.7545 0.75 54.0592 6.95088 55.8864 15.3562L55.972 15.75H56.375H58.625C67.7239 15.75 75 23.0261 75 32.125C75 36.4837 73.184 40.4839 70.2714 43.3964C68.9667 44.7012 67.0333 44.7012 65.7286 43.3964C64.4238 42.0917 64.4238 40.1583 65.7286 38.8536C67.7071 36.875 68.5 34.493 68.5 32.125C68.5 26.5989 64.1511 22.25 58.625 22.25H53C51.9886 22.25 51.1847 21.9151 50.6348 21.3652C50.0849 20.8153 49.75 20.0114 49.75 19C49.75 12.3489 44.6511 7.25 38 7.25C31.3489 7.25 26.25 12.3489 26.25 19C26.25 20.0114 25.9151 20.8153 25.3652 21.3652C24.8153 21.9151 24.0114 22.25 23 22.25H17.375C11.8489 22.25 7.5 26.5989 7.5 32.125C7.5 34.9008 8.69104 37.2579 10.2346 39.1873L10.2519 39.209L10.2714 39.2286C11.5762 40.5333 11.5762 42.4667 10.2714 43.7714C9.92596 44.1169 9.60035 44.3562 9.25006 44.5118C8.90193 44.6666 8.50416 44.75 8 44.75C7.49584 44.75 7.09806 44.6666 6.74994 44.5118C6.39965 44.3562 6.07404 44.1169 5.72855 43.7714C2.45543 40.4983 1 36.5043 1 32.125C1 23.0261 8.27614 15.75 17.375 15.75H19.625Z" fill="#A3C5FF" stroke="#A3C5FF"/>
<path d="M38 42C38.3552 42 38.7449 42.2071 39.1573 42.6829C39.5653 43.1537 39.939 43.8258 40.2564 44.5966C40.8929 46.1423 41.25 47.9525 41.25 49C41.25 50.0114 40.9151 50.8153 40.3652 51.3652C39.8153 51.9151 39.0114 52.25 38 52.25C36.9886 52.25 36.1847 51.9151 35.6348 51.3652C35.0849 50.8153 34.75 50.0114 34.75 49C34.75 47.9525 35.1071 46.1423 35.7436 44.5966C36.061 43.8258 36.4347 43.1537 36.8427 42.6829C37.2551 42.2071 37.6448 42 38 42Z" fill="#A3C5FF" stroke="#A3C5FF"/>
<path d="M26.75 57C27.1052 57 27.4949 57.2071 27.9073 57.6829C28.3153 58.1537 28.689 58.8258 29.0064 59.5966C29.6429 61.1423 30 62.9525 30 64C30 65.0114 29.6651 65.8153 29.1152 66.3652C28.5653 66.9151 27.7614 67.25 26.75 67.25C25.7386 67.25 24.9347 66.9151 24.3848 66.3652C23.8349 65.8153 23.5 65.0114 23.5 64C23.5 62.9525 23.8571 61.1423 24.4936 59.5966C24.811 58.8258 25.1847 58.1537 25.5927 57.6829C26.0051 57.2071 26.3948 57 26.75 57Z" fill="#A3C5FF" stroke="#A3C5FF"/>
<path d="M49.25 57C49.6052 57 49.9949 57.2071 50.4073 57.6829C50.8153 58.1537 51.189 58.8258 51.5064 59.5966C52.1429 61.1423 52.5 62.9525 52.5 64C52.5 65.0114 52.1651 65.8153 51.6152 66.3652C51.0653 66.9151 50.2614 67.25 49.25 67.25C48.2386 67.25 47.4347 66.9151 46.8848 66.3652C46.3349 65.8153 46 65.0114 46 64C46 62.9525 46.3571 61.1423 46.9936 59.5966C47.311 58.8258 47.6847 58.1537 48.0927 57.6829C48.5051 57.2071 48.8948 57 49.25 57Z" fill="#A3C5FF" stroke="#A3C5FF"/>
<path d="M56.75 42C57.1052 42 57.4949 42.2071 57.9073 42.6829C58.3153 43.1537 58.689 43.8258 59.0064 44.5966C59.6429 46.1423 60 47.9525 60 49C60 50.0114 59.6651 50.8153 59.1152 51.3652C58.5653 51.9151 57.7614 52.25 56.75 52.25C55.7386 52.25 54.9347 51.9151 54.3848 51.3652C53.8349 50.8153 53.5 50.0114 53.5 49C53.5 47.9525 53.8571 46.1423 54.4936 44.5966C54.811 43.8258 55.1847 43.1537 55.5927 42.6829C56.0051 42.2071 56.3948 42 56.75 42Z" fill="#A3C5FF" stroke="#A3C5FF"/>
<path d="M19.25 42C19.6052 42 19.9949 42.2071 20.4073 42.6829C20.8153 43.1537 21.189 43.8258 21.5064 44.5966C22.1429 46.1423 22.5 47.9525 22.5 49C22.5 50.0114 22.1651 50.8153 21.6152 51.3652C21.0653 51.9151 20.2614 52.25 19.25 52.25C18.2386 52.25 17.4347 51.9151 16.8848 51.3652C16.3349 50.8153 16 50.0114 16 49C16 47.9525 16.3571 46.1423 16.9936 44.5966C17.311 43.8258 17.6847 43.1537 18.0927 42.6829C18.5051 42.2071 18.8948 42 19.25 42Z" fill="#A3C5FF" stroke="#A3C5FF"/>
</svg>
