<svg width="80" height="72" viewBox="0 0 80 72" fill="none" xmlns="http://www.w3.org/2000/svg">
<path d="M6.25 21H13.75M21.25 12.9643V11.625C21.25 6.44734 25.4473 2.25 30.625 2.25C35.8026 2.25 40 6.44734 40 11.625C40 16.8027 35.8026 21 30.625 21H25" stroke="#A3C5FF" stroke-width="3.75" stroke-linecap="round"/>
<path d="M10 43.5H13.75M51.25 54.75V56.625C51.25 63.8737 57.1263 69.75 64.375 69.75C71.6237 69.75 77.5 63.8737 77.5 56.625C77.5 49.3763 71.6237 43.5 64.375 43.5H28.75" stroke="#A3C5FF" stroke-width="3.75" stroke-linecap="round"/>
<path d="M2.5 32.25H25M51.25 21V19.125C51.25 11.8763 57.1263 6 64.375 6C71.6237 6 77.5 11.8763 77.5 19.125C77.5 26.3737 71.6237 32.25 64.375 32.25H40.9375" stroke="#A3C5FF" stroke-width="3.75" stroke-linecap="round"/>
</svg>
